# xmcd
#
# Track frame offsets: 
#        150
#        14920
#        26437
#        36120
#        46652
#        59337
#        67825
#        78262
#        98040
#        105442
#        113845
#        137535
#        153902
#        172617
#        189390
#        201202
#        210497
#        228310
#        235442
#        252837
#
# Disc length: 3809 seconds
#
# Revision: 3
# Processed by: cddbd v1.5.2PL0 Copyright (c) Steve Scherf et al.
# Submitted via: ExactAudioCopyFreeDBPlugin 1.0
#
DISCID=f50edf14
DTITLE=Uncle Tupelo - March 16-20, 1992
DYEAR=2003
DGENRE=Alternative  Country
TTITLE0=Grindstone
TTITLE1=Coalminers
TTITLE2=Wait Up
TTITLE3=Criminals
TTITLE4=Shaky Ground
TTITLE5=Satan, Your Kingdom Must Come Down
TTITLE6=Black Eye
TTITLE7=Moonshiner
TTITLE8=I Wish My Baby Was Born
TTITLE9=Atomic Power
TTITLE10=Lilli Schull
TTITLE11=Warfare
TTITLE12=Fatal Wound
TTITLE13=Sandusky
TTITLE14=Wipe The Clock
TTITLE15=Take My Word
TTITLE16=Grindstone (1991 Longview Farm Acoustic Demo)
TTITLE17=Atomic Power (1991 Longview Farm Acoustic Demo)
TTITLE18=I Wanna Be Your Dog (1991 Longview Farm Acoustic Demo)
TTITLE19=Moonshiner (Live 1-24-1993)
EXTD=
EXTT0=
EXTT1=
EXTT2=
EXTT3=
EXTT4=
EXTT5=
EXTT6=
EXTT7=
EXTT8=
EXTT9=
EXTT10=
EXTT11=
EXTT12=
EXTT13=
EXTT14=
EXTT15=
EXTT16=
EXTT17=
EXTT18=
EXTT19=
PLAYORDER=
